<svg version="1.1" id="Layer_1" xmlns:x="ns_extend;" xmlns:i="ns_ai;" xmlns:graph="ns_graphs;" xmlns="http://www.w3.org/2000/svg" xmlns:xlink="http://www.w3.org/1999/xlink" x="0px" y="0px" viewBox="0 0 419.5 82" style="enable-background:new 0 0 419.5 82;" xml:space="preserve">
 <style type="text/css">
  .st0{fill:#3088F4;}
 </style>
 <metadata>
  <sfw xmlns="ns_sfw;">
   <slices>
   </slices>
   <sliceSourceBounds bottomLeftOrigin="true" height="82" width="419.5" x="-9.3" y="-241.2">
   </sliceSourceBounds>
  </sfw>
 </metadata>
 <g>
  <path class="st0" d="M54.8,16.3c5.2,7.5,7.9,16.4,7.8,25.5c0,0.2,0.1,0.3,0.3,0.3c0.1,0,0.2-0.1,0.3-0.1c0.7-1.2,1.3-2.4,1.9-3.6
		c4.2-9.3,4.5-20,0.8-29.6C57.4,2,46.5-1,35.7,0.4c-0.2,0-0.3,0.2-0.3,0.4c0,0.1,0.1,0.2,0.2,0.3C43.4,4.1,50.1,9.5,54.8,16.3z">
  </path>
  <path class="st0" d="M69.3,40.2C65.4,48.9,58.8,56,50.4,60.5c-0.2,0.1-0.2,0.3-0.1,0.4c0.1,0.1,0.2,0.2,0.3,0.2c2,0,4-0.1,6-0.5
		c9.6-1.5,18.2-6.5,24.4-13.9c1.7-10.8-1.2-21.8-7.8-30.5c-0.1-0.1-0.3-0.2-0.4-0.1c-0.1,0.1-0.1,0.2-0.1,0.3
		C73.8,24.6,72.6,32.8,69.3,40.2z M27.7,16.2c8.6-0.6,17.2,1.5,24.6,6.1c0.2,0.1,0.4,0.1,0.4-0.1c0.1-0.1,0.1-0.2,0-0.3
		c-0.6-1-1.2-1.9-1.8-2.9C45.1,10.4,35.9,4.6,25.6,3C15.5,7,7.4,14.9,3.2,25c-0.1,0.2,0,0.4,0.2,0.4c0.1,0,0.2,0,0.3,0
		C10.6,20,19,16.8,27.7,16.2z">
  </path>
  <path class="st0" d="M57.3,65.3c-10.1,1.6-20.5-0.6-29-6.1c-0.2-0.1-0.4-0.1-0.4,0.1c-0.1,0.1-0.1,0.2,0,0.3
		c0.7,1.3,1.6,2.6,2.5,3.9c6.2,8.2,15.3,13.7,25.4,15.4c10.1-4,18.3-12,22.5-22.1c0.1-0.2,0-0.4-0.2-0.4c-0.1,0-0.2,0-0.3,0
		C71.8,61,64.8,64.1,57.3,65.3z">
  </path>
  <path class="st0" d="M26.7,66.2c-5.6-7.5-8.5-16.7-8.1-26.1c0-0.2-0.1-0.3-0.3-0.3c-0.1,0-0.2,0.1-0.3,0.1c-0.6,1-1.1,2-1.6,3
		c-4.3,9.4-4.6,20.1-1,29.7c8.6,6.9,19.6,10.1,30.5,8.7c0.2,0,0.3-0.2,0.3-0.4c0-0.1-0.1-0.2-0.2-0.3C38.3,77.7,31.7,72.7,26.7,66.2
		z">
  </path>
  <path class="st0" d="M11.8,41.2c3.7-8.6,10.3-15.7,18.6-20c0.2-0.1,0.2-0.3,0.1-0.4c-0.1-0.1-0.2-0.2-0.3-0.2c-1.1,0-2.3,0-3.4,0.1
		c-10.3,0.9-19.8,6-26.3,14c-1.8,10.9,1,22,7.7,30.8c0.1,0.1,0.3,0.2,0.4,0.1c0.1-0.1,0.1-0.2,0.1-0.3C7.6,57.1,8.6,48.8,11.8,41.2z
		 M249.8,23.8c0-1.3,0-2.7,0-4c0-0.8,0.2-1,1-1c2.7,0,5.3,0,8,0c0.8,0,1.1,0.2,1.1,1.1c0,3.2,0,6.3,0,9.4v29.3
		c0.2,5.2-1.4,10.4-4.5,14.6c-3.3,4.2-7.9,7.1-13.2,8c-9.2,1.9-18.7,0.1-26.4-5.2c-0.2-0.1-0.4-0.3-0.6-0.5c1.4-2.7,2.8-5.3,4.3-8
		c0.5,0.3,0.8,0.5,1.1,0.7c4.9,3.3,10.8,4.8,16.7,4.4c4.8-0.1,9.2-2.9,11.2-7.3c1-2.5,1.4-5.2,1.1-7.8c-0.2,0.1-0.4,0.2-0.5,0.3
		c-3.5,3.6-8.3,5.5-13.3,5.4c-8.3,0.5-16-4-19.8-11.3c-5.3-9.7-3.1-21.7,5.2-29c6.1-5.3,14.7-6.8,22.2-3.7c2.1,0.9,4,2.1,5.6,3.8
		c0.3,0.3,0.5,0.5,0.7,0.8C249.6,23.8,249.7,23.8,249.8,23.8L249.8,23.8z M223.8,40.6c-0.2,7.2,5.4,13.1,12.6,13.4
		c7.2,0.2,13.1-5.4,13.4-12.6c0-0.3,0-0.5,0-0.8c0-7.2-5.8-13-13-13C229.6,27.6,223.8,33.5,223.8,40.6
		C223.8,40.6,223.8,40.6,223.8,40.6z M383,63.1h-10.1v-5.3c-0.9,0.8-1.5,1.4-2.2,2c-4.2,3.6-9.8,5.1-15.3,4.2
		c-6.3-0.7-11.9-4.3-15.2-9.6c-3.1-4.9-4.4-10.8-3.7-16.6c0.4-4.2,1.9-8.1,4.4-11.5c6.4-8.5,18-10.9,27.2-5.8c1.6,1,3.1,2.3,4.8,3.6
		v-2.4c0-2.9,0-2.9,2.9-2.9c2.1,0,4.2,0,6.2,0c0.7,0,1,0.2,1,0.9c0,14.3,0,28.6,0,42.9C383,62.7,383,62.9,383,63.1z M373.2,40.9
		c-0.2-1.1-0.2-2.2-0.5-3.3c-1.6-7-8.6-11.4-15.6-9.9c-2.1,0.5-4,1.4-5.6,2.8c-3.5,3.1-5.2,7.9-4.4,12.5c0.7,6.3,5.9,11.2,12.3,11.4
		c7.2,0.4,13.5-5.1,13.9-12.4C373.2,41.7,373.2,41.3,373.2,40.9L373.2,40.9z M204.5,63.1h-10.7V39.4c0.1-2.2-0.3-4.4-1.2-6.4
		c-3-7-11.9-6.7-15.9-2.7c-2.2,2.1-3.5,5.1-3.5,8.2c-0.1,7.8,0,15.7,0,23.5v1.3h-10.6c0-0.4-0.1-0.7-0.1-1.1c0-14,0-28,0-42
		c0-0.9,0.2-1.2,1.2-1.2c2.8,0.1,5.5,0,8.3,0c0.8,0,1.1,0.2,1,1.1c-0.1,1.6,0,3.1,0,4.9c0.2-0.2,0.3-0.3,0.4-0.4
		c2.7-4,7.2-6.5,12.1-6.6c9.2-1.2,17.6,5.3,18.8,14.5c0.1,0.8,0.1,1.6,0.1,2.3c0.1,7.7,0.1,15.3,0.1,23
		C204.5,57.6,204.5,63.1,204.5,63.1z M308.6,18.8v25.6c0.1,3.9-0.8,7.7-2.6,11.1c-2.4,4.2-6.6,7.2-11.5,8.1
		c-5.8,1.5-11.9,0.8-17.2-1.9c-5-2.7-8.2-7.6-8.7-13.2c-0.2-1.9-0.3-3.8-0.3-5.7c0-7.6,0-15.1,0-22.7c0-1.1,0.3-1.3,1.3-1.3
		c2.8,0.1,5.5,0.1,8.3,0c0.9,0,1.2,0.2,1.2,1.2c0,8.1,0,16.3,0,24.4c-0.1,2.1,0.4,4.2,1.4,6c2,3.2,5.8,4.8,9.5,4.1
		c4.6-0.5,8.1-4.5,7.9-9.1c0.1-5.1,0-10.1,0-15.2c0-3.4,0-6.9,0-10.3c0-0.3,0.4-1,0.5-1C301.8,18.8,305.1,18.8,308.6,18.8z
		 M133.5,23.9c-1.8,2.2-3.7,4.4-5.5,6.7c-0.4-0.3-0.6-0.6-1-0.8c-2.7-2.6-6.3-3.9-10-3.6c-1.9,0-3.6,1.2-4.3,3c-0.5,1.4,0,3,1.2,4
		c1,0.7,2,1.3,3.1,1.7c3.6,1.6,7.4,2.9,10.9,4.7c4.3,1.9,6.9,6.2,6.7,10.9c0,4.9-2.8,9.4-7.2,11.6c-9.4,4.7-20.7,2.3-27.4-5.6
		c-0.5-0.6-0.5-1,0.1-1.6c1.8-1.8,3.5-3.8,5.3-5.6c1.1,1.1,2.3,2.2,3.6,3.2c3,2.4,6.9,3.4,10.7,2.7c1-0.2,2-0.7,2.8-1.3
		c1.7-1.1,2.1-3.4,1-5.1c-0.3-0.4-0.6-0.7-1-1c-1.3-0.9-2.8-1.7-4.3-2.3c-3.1-1.4-6.3-2.5-9.4-4c-4.2-1.9-6.8-6.2-6.6-10.8
		c-0.1-4.6,2.5-8.9,6.7-10.9c7.9-3.9,17.5-2.5,24,3.5C133,23.3,133.2,23.5,133.5,23.9z M327.7,63.1h-10.6v-63c0.3,0,0.6-0.1,1-0.1
		c2.9,0,5.7,0,8.6,0c0.7,0,1.1,0.1,1.1,1c0,20,0,41.2,0,61.2C327.8,62.5,327.7,62.8,327.7,63.1z M418.6,28.6
		c-1.5-0.2-2.9-0.6-4.3-0.7c-5.7-0.7-10.9,3.5-11.6,9.2c0,0.1,0,0.2,0,0.4c-0.2,1.5-0.3,3.1-0.4,4.7c0,6.5,0,13,0,19.5v1.4h-10.7V62
		c0-14,0-28,0-41.9c0-1.1,0.3-1.3,1.3-1.3c2.6,0.1,5.1,0,7.7,0h1.2v5.6c0.1,0,0.2,0.1,0.2,0.1c0.2-0.3,0.5-0.6,0.7-0.9
		c3.6-5.2,10.2-7.3,16.2-5.2c0.3,0.1,0.6,0.5,0.6,0.8c-0.2,3.1-0.5,6.2-0.8,9.3C418.6,28.5,418.6,28.6,418.6,28.6L418.6,28.6z
		 M153.9,63.1h-10.6c0-0.4-0.1-0.7-0.1-1.1c0-14,0-28,0-42c0-0.9,0.2-1.2,1.2-1.2c2.8,0.1,5.7,0.1,8.5,0c0.7,0,1.1,0.1,1.1,1
		c0,14.2,0,28.4,0,42.5C153.9,62.6,153.9,62.9,153.9,63.1z M155.4,6.8c0.1,3.8-2.9,6.9-6.7,7c-3.8,0.1-6.9-2.9-7-6.7s2.9-6.9,6.7-7
		c0,0,0.1,0,0.1,0c3.7-0.1,6.7,2.8,6.8,6.5C155.4,6.6,155.4,6.7,155.4,6.8z">
  </path>
 </g>
</svg>